<?xml version="1.0" standalone="no"?><svg xmlns="http://www.w3.org/2000/svg" viewBox="0 0 1440 320"><path fill="#273036" fill-opacity="1" d="M0,160L30,176C60,192,120,224,180,197.3C240,171,300,85,360,85.3C420,85,480,171,540,224C600,277,660,299,720,293.3C780,288,840,256,900,208C960,160,1020,96,1080,74.7C1140,53,1200,75,1260,96C1320,117,1380,139,1410,149.3L1440,160L1440,320L1410,320C1380,320,1320,320,1260,320C1200,320,1140,320,1080,320C1020,320,960,320,900,320C840,320,780,320,720,320C660,320,600,320,540,320C480,320,420,320,360,320C300,320,240,320,180,320C120,320,60,320,30,320L0,320Z"></path></svg>